<svg version="1.1" id="Layer_1" xmlns="http://www.w3.org/2000/svg" xmlns:xlink="http://www.w3.org/1999/xlink" x="0px" y="0px"
	 width="100%" viewBox="0 0 496 496" enable-background="new 0 0 496 496" xml:space="preserve">
<path fill="#000000" opacity="1.000000" stroke="none" 
	d="
M198.821716,258.785889 
	C187.539856,254.744553 183.414795,248.859344 183.999832,237.671982 
	C184.100784,235.741287 183.927628,234.297852 181.971985,233.751221 
	C179.002335,232.921158 176.013916,232.573685 173.651611,235.223328 
	C172.022125,237.050995 171.473526,239.321045 171.423050,241.696548 
	C171.355835,244.860168 171.391342,248.026031 171.386826,251.190933 
	C171.376495,258.421814 171.377502,258.421814 164.346420,258.358490 
	C158.974030,258.310120 158.974030,258.310120 158.439056,252.711441 
	C147.993835,261.377533 137.269577,262.057983 125.754456,253.317947 
	C125.992783,258.554321 122.862602,258.437836 119.498474,258.402252 
	C109.561577,258.296997 99.622841,258.364655 88.678917,258.364655 
	C93.419243,248.973038 99.819489,241.903152 104.573448,233.282822 
	C101.162422,231.993546 97.871819,232.446152 94.670219,232.488632 
	C91.643227,232.528824 90.936836,230.770981 91.100159,228.320892 
	C91.254059,226.012192 90.275787,222.776093 94.210464,222.736237 
	C104.652756,222.630447 115.096832,222.700333 126.602936,222.700333 
	C121.977509,232.238846 115.212807,239.263138 110.571777,248.073608 
	C114.628052,248.073608 118.211082,248.073608 122.481567,248.073608 
	C119.577026,235.869980 123.048225,226.742935 135.212936,222.464081 
	C143.527405,219.539536 152.283569,222.656097 158.167130,230.129562 
	C159.936722,227.980637 156.559921,223.256454 161.080215,222.936508 
	C164.838776,222.670486 169.370255,220.724533 172.430649,225.098160 
	C181.940964,219.820496 189.095535,220.565125 189.493561,226.896194 
	C203.031708,218.556152 213.449005,219.651779 224.791794,230.982666 
	C230.169144,223.695374 237.451553,220.325027 246.440216,221.923401 
	C249.631607,222.490891 254.027985,222.245605 254.043869,227.569687 
	C259.955322,221.248047 267.103516,219.942429 274.615723,223.079453 
	C278.093384,224.531693 280.575500,222.387253 283.611755,222.514130 
	C291.326080,222.836441 291.340668,222.564194 291.343231,230.091309 
	C291.345490,236.754379 291.345917,243.417465 291.335663,250.080521 
	C291.323334,258.082428 286.291931,261.176514 279.102600,257.452271 
	C278.242889,257.006958 277.816742,256.120941 276.671326,256.793671 
	C269.143127,261.215149 262.013580,259.797791 255.269592,255.131378 
	C246.201706,262.403900 235.048706,260.588715 224.475677,250.035004 
	C218.101212,258.689270 209.238205,260.512360 198.821716,258.785889 
M249.709229,242.828918 
	C249.587265,239.736511 249.618622,236.650131 250.572342,233.676529 
	C248.807281,233.210434 247.548859,232.777527 246.254272,232.555176 
	C242.441376,231.900345 239.284973,233.035233 237.342300,236.481186 
	C235.525909,239.703064 235.869308,242.937256 238.302856,245.723709 
	C240.869675,248.662766 243.986511,249.091034 247.788940,248.016052 
	C250.770508,247.173141 250.278885,245.582565 249.709229,242.828918 
M263.714996,238.284119 
	C263.263275,239.743668 263.191437,241.231247 263.673828,242.674454 
	C265.039490,246.760223 268.045319,248.285507 272.158478,247.849228 
	C276.263824,247.413757 278.335022,244.844803 278.598816,240.938675 
	C278.867035,236.966812 276.904114,234.199234 273.004120,233.292801 
	C269.007660,232.363953 265.845825,233.721588 263.714996,238.284119 
M200.376953,234.664078 
	C197.148270,238.000137 196.534607,241.749771 199.461884,245.411041 
	C201.980606,248.561356 205.612396,248.634613 209.030640,247.069748 
	C212.625412,245.424042 213.258148,242.099762 212.593216,238.571808 
	C211.679871,233.725876 207.108322,232.069458 200.376953,234.664078 
M158.024307,247.904510 
	C159.761963,243.987137 158.326904,242.345352 154.214874,242.412323 
	C149.727020,242.485428 145.233002,242.306610 140.749557,242.463440 
	C138.846939,242.529968 135.710358,241.377426 135.719788,244.687286 
	C135.727280,247.321060 138.381104,248.338257 140.785675,248.600983 
	C142.400528,248.777390 144.618317,249.064896 145.623657,248.203064 
	C149.683624,244.722626 153.485947,246.032852 158.024307,247.904510 
M136.987152,232.031647 
	C136.268173,232.993256 135.388718,234.349365 137.259659,234.590027 
	C140.243240,234.973816 143.364990,235.414673 146.872910,233.786331 
	C144.100616,229.828842 141.072113,229.574875 136.987152,232.031647 
z"/>
<path fill="#000000" opacity="1.000000" stroke="none" 
	d="
M393.851715,248.137344 
	C387.277985,259.358704 382.293762,261.049591 366.728180,257.181091 
	C365.840912,261.954712 366.219025,266.761841 366.371460,271.502747 
	C366.525940,276.306976 363.711517,276.520355 360.259613,276.291016 
	C357.005219,276.074799 352.693359,277.554321 352.914246,271.725586 
	C352.952057,270.728210 352.907501,269.727905 352.907806,268.728943 
	C352.910614,259.335815 352.920349,259.236389 343.577057,258.365417 
	C340.722565,258.099304 339.861267,256.705017 339.859497,254.189072 
	C339.856018,249.194199 339.798584,244.199295 339.811310,239.204514 
	C339.820862,235.464386 338.817169,232.316849 334.411407,232.419510 
	C329.981293,232.522751 329.275604,235.830124 329.295959,239.483658 
	C329.323792,244.478210 329.209259,249.473923 329.269196,254.467773 
	C329.301971,257.196381 328.140381,258.465668 325.395630,258.350739 
	C323.733673,258.281128 322.058868,258.235901 320.403076,258.358490 
	C317.095154,258.603424 315.954376,256.916138 315.990845,253.867401 
	C316.042664,249.539261 316.045044,245.208511 315.954102,240.881271 
	C315.874023,237.071487 316.369568,232.720016 310.746460,232.381531 
	C307.010742,232.156677 305.373444,234.835114 305.344727,240.770966 
	C305.325409,244.766861 305.078613,248.781998 305.385193,252.753677 
	C305.724915,257.154816 304.076324,258.941254 299.696167,258.381744 
	C297.579346,258.111298 295.364197,258.713531 293.040619,257.574402 
	C291.979248,252.789047 292.828857,247.796432 292.665771,242.852890 
	C292.539520,239.027466 292.637909,235.194733 292.629578,231.365280 
	C292.610291,222.504684 297.055359,219.727982 305.115662,223.927841 
	C306.628662,224.716217 307.207489,224.116776 308.089172,223.642639 
	C313.980408,220.474396 319.664307,220.899017 324.910095,224.901749 
	C326.880951,226.405594 328.176605,226.293762 330.152710,224.969376 
	C338.911560,219.099182 347.237671,220.961105 352.558533,229.896301 
	C353.419159,227.627045 351.740936,224.168259 354.378357,223.239731 
	C357.928864,221.989777 361.940063,222.054764 365.589752,223.380646 
	C366.555573,223.731506 366.955353,224.793381 368.395172,224.007935 
	C375.363129,220.206802 382.313873,220.434113 388.376678,225.632828 
	C394.786591,231.129150 396.330505,238.405670 394.282440,246.501602 
	C394.241852,246.662125 394.234039,246.830948 394.098511,247.481689 
	C393.986053,247.967468 393.851715,248.137344 393.851715,248.137344 
M368.368591,234.773178 
	C365.421570,238.299347 365.177490,242.137634 367.977356,245.649216 
	C370.347351,248.621567 373.898132,248.561890 377.100311,247.131210 
	C380.946167,245.412949 381.404999,241.875305 380.651825,238.235214 
	C379.650482,233.395920 375.205688,231.965378 368.368591,234.773178 
z"/>
<path fill="#000000" opacity="1.000000" stroke="none" 
	d="
M394.048157,247.878754 
	C398.040466,242.726837 401.695282,241.635300 405.892242,244.271179 
	C409.627350,246.617004 410.973999,251.342422 408.863281,255.117340 
	C406.806213,258.796204 403.405731,260.076630 399.552673,259.049286 
	C394.507874,257.704163 393.145782,253.791977 393.804871,248.550049 
	C393.851715,248.137344 393.986053,247.967468 394.048157,247.878754 
z"/>
</svg>